<svg xmlns="http://www.w3.org/2000/svg" width="27" height="27.007" viewBox="342.5 0 27 27.007"><path d="m369.184 25.052-7.51-7.58a10.738 10.738 0 0 0 2.356-6.714C364.03 4.816 359.213 0 353.265 0 347.316 0 342.5 4.823 342.5 10.765c0 5.941 4.816 10.758 10.765 10.758 2.573 0 4.929-.9 6.785-2.405l7.46 7.53c.225.24.535.359.837.359.288 0 .576-.105.794-.316a1.163 1.163 0 0 0 .043-1.639Zm-15.92-5.843a8.398 8.398 0 0 1-5.976-2.475 8.394 8.394 0 0 1-2.475-5.97 8.37 8.37 0 0 1 2.475-5.969 8.398 8.398 0 0 1 5.977-2.475c2.257 0 4.38.88 5.976 2.475a8.394 8.394 0 0 1 2.475 5.97 8.37 8.37 0 0 1-2.475 5.97 8.398 8.398 0 0 1-5.976 2.474Z" fill="#fff" fill-rule="evenodd" data-name="Icon ionic-ios-search"/></svg>